<svg width="32" height="32" viewBox="0 0 32 32" fill="none" xmlns="http://www.w3.org/2000/svg">
<path d="M3.99933 6.33358V23.6669C3.99933 23.8222 4.03548 23.9753 4.10491 24.1141C4.17433 24.253 4.27514 24.3738 4.39933 24.4669C4.52353 24.5601 4.66771 24.623 4.82045 24.6508C4.97319 24.6786 5.1303 24.6704 5.27933 24.6269L27.2793 18.2102C27.4871 18.1497 27.6695 18.0233 27.7993 17.8502C27.9292 17.6772 27.9993 17.4666 27.9993 17.2502V12.7502C27.9993 12.5339 27.9292 12.3233 27.7993 12.1502C27.6695 11.9771 27.4871 11.8508 27.2793 11.7902L5.27933 5.37358C5.1303 5.33011 4.97319 5.32194 4.82045 5.34971C4.66771 5.37748 4.52353 5.44043 4.39933 5.53358C4.27514 5.62673 4.17433 5.74751 4.10491 5.88637C4.03548 6.02522 3.99933 6.17834 3.99933 6.33358V6.33358Z" stroke="#CD0141" stroke-width="2" stroke-linecap="round" stroke-linejoin="round"/>
<path d="M23 19.4579V23.9998C23 24.265 22.8946 24.5193 22.7071 24.7069C22.5196 24.8944 22.2652 24.9998 22 24.9998H18C17.7348 24.9998 17.4804 24.8944 17.2929 24.7069C17.1054 24.5193 17 24.265 17 23.9998V8.79163" stroke="#CD0141" stroke-width="2" stroke-linecap="round" stroke-linejoin="round"/>
</svg>
